<svg xmlns="http://www.w3.org/2000/svg" viewBox="0 0 520 120" role="img" aria-labelledby="title desc">
  <title id="title">Narwhall</title>
  <desc id="desc">Narwhall wordmark with a stylized narwhal icon</desc>
  <defs>
    <linearGradient id="g" x1="0" y1="0" x2="1" y2="1">
      <stop offset="0" stop-color="#b44cff"/>
      <stop offset="1" stop-color="#ff6a00"/>
    </linearGradient>
  </defs>
  <g transform="translate(8 8)">
    <path d="M22 54c8-22 27-36 51-36 18 0 33 8 43 22-10-5-20-7-30-6-18 2-31 11-39 26 15-7 30-7 44 1-12 17-30 25-51 21-10-2-17-10-18-18z" fill="url(#g)"/>
    <path d="M64 31 87 4l-7 31z" fill="none" stroke="#f8f3ff" stroke-width="5" stroke-linecap="round" stroke-linejoin="round"/>
    <circle cx="91" cy="37" r="3.5" fill="#08070c"/>
    <path d="M37 79c9 8 20 11 32 10" fill="none" stroke="#f8f3ff" stroke-width="4" stroke-linecap="round"/>
  </g>
  <text x="125" y="78" fill="#f8f3ff" font-family="Arial, Helvetica, sans-serif" font-size="58" font-weight="900" letter-spacing="3">NARWHALL</text>
</svg>
